HIERARCHY
ROOT Pelvis
{
	OFFSET 0.000000 0.000000 0.000000
	CHANNELS 6 Xposition Yposition Zposition Zrotation Yrotation Xrotation 
	JOINT Left_hip
	{
		OFFSET 0.067986 -0.089946 -0.007639
		CHANNELS 3 Zrotation Yrotation Xrotation
		JOINT Left_knee
		{
			OFFSET 0.036308 -0.388288 -0.004016
			CHANNELS 3 Zrotation Yrotation Xrotation
			JOINT Left_ankle
			{
				OFFSET -0.012264 -0.413250 -0.042878
				CHANNELS 3 Zrotation Yrotation Xrotation
				JOINT Left_foot
				{
					OFFSET 0.024043 -0.058563 0.118570
					CHANNELS 3 Zrotation Yrotation Xrotation
					End Site
					{
						OFFSET 0.000000 0.000000 0.000000
					}
				}
			}
		}
	}
	JOINT Right_hip
	{
		OFFSET -0.065648 -0.089374 -0.003858
		CHANNELS 3 Zrotation Yrotation Xrotation
		JOINT Right_knee
		{
			OFFSET -0.042132 -0.395021 -0.006361
			CHANNELS 3 Zrotation Yrotation Xrotation
			JOINT Right_ankle
			{
				OFFSET 0.014805 -0.413264 -0.041054
				CHANNELS 3 Zrotation Yrotation Xrotation
				JOINT Right_foot
				{
					OFFSET -0.021758 -0.049013 0.121832
					CHANNELS 3 Zrotation Yrotation Xrotation
					End Site
					{
						OFFSET 0.000000 0.000000 0.000000
					}
				}
			}
		}
	}
	JOINT Spine1
	{
		OFFSET -0.002755 0.104406 -0.022277
		CHANNELS 3 Zrotation Yrotation Xrotation
		JOINT Spine2
		{
			OFFSET 0.004136 0.129393 -0.002186
			CHANNELS 3 Zrotation Yrotation Xrotation
			JOINT Spine3
			{
				OFFSET 0.001906 0.049304 0.025578
				CHANNELS 3 Zrotation Yrotation Xrotation
				JOINT Neck
				{
					OFFSET -0.004620 0.210958 -0.044063
					CHANNELS 3 Zrotation Yrotation Xrotation
					JOINT Head
					{
						OFFSET 0.003833 0.067393 0.052435
						CHANNELS 3 Zrotation Yrotation Xrotation
						End Site
						{
							OFFSET 0.000000 0.000000 0.000000
						}
					}
				}
				JOINT Left_collar
				{
					OFFSET 0.070771 0.116689 -0.037192
					CHANNELS 3 Zrotation Yrotation Xrotation
					JOINT Left_shoulder
					{
						OFFSET 0.080652 0.031596 -0.005617
						CHANNELS 3 Zrotation Yrotation Xrotation
						JOINT Left_elbow
						{
							OFFSET 0.262654 -0.015020 -0.027939
							CHANNELS 3 Zrotation Yrotation Xrotation
							JOINT Left_wrist
							{
								OFFSET 0.250438 0.010062 -0.000990
								CHANNELS 3 Zrotation Yrotation Xrotation
								JOINT Left_palm
								{
									OFFSET 0.081198 -0.010037 -0.013706
									CHANNELS 3 Zrotation Yrotation Xrotation
									End Site
									{
										OFFSET 0.000000 0.000000 0.000000
									}
								}
							}
						}
					}
				}
				JOINT Right_collar
				{
					OFFSET -0.072972 0.115556 -0.040762
					CHANNELS 3 Zrotation Yrotation Xrotation
					JOINT Right_shoulder
					{
						OFFSET -0.082917 0.031841 -0.006673
						CHANNELS 3 Zrotation Yrotation Xrotation
						JOINT Right_elbow
						{
							OFFSET -0.252882 -0.013790 -0.020410
							CHANNELS 3 Zrotation Yrotation Xrotation
							JOINT Right_wrist
							{
								OFFSET -0.255570 0.009163 -0.005138
								CHANNELS 3 Zrotation Yrotation Xrotation
								JOINT Right_palm
								{
									OFFSET -0.080804 -0.007282 -0.010415
									CHANNELS 3 Zrotation Yrotation Xrotation
									End Site
									{
										OFFSET 0.000000 0.000000 0.000000
									}
								}
							}
						}
					}
				}
			}
		}
	}
}
MOTION
Frames: 13
Frame Time: 0.100000
0.000000 0.000000 0.000000 174.589925 25.000788 -19.423978 8.595995 5.355999 8.929550 -5.226685 -18.091747 -1.965717 -6.477506 11.765699 -7.482317 3.313266 0.831737 0.850012 -7.160602 -6.632197 8.613936 5.525664 11.168994 1.546593 13.332972 -12.658855 -9.658478 -9.283091 8.759875 2.095284 1.249917 1.534747 9.539480 0.109823 -3.251636 0.543132 0.969148 -0.550602 2.389484 1.042217 2.013990 2.238550 2.160684 -0.457893 -4.172390 -6.590706 1.425108 -7.972152 0.344264 2.213420 -14.334896 2.428870 -5.562461 -9.805363 1.384182 -8.114080 21.107729 -6.810654 -1.707823 -12.863162 6.038825 -1.349646 -6.276576 1.489698 -5.908315 -10.361630 -3.934913 7.401836 -9.316290 1.038187 3.383325 15.800974 6.991935 4.171416 -3.188429 
-0.000350 -0.000103 0.000425 174.611278 24.960431 -19.380843 8.588729 5.381668 8.979238 -5.222091 -18.076606 -2.039242 -6.426787 11.764420 -7.456857 3.264422 0.853744 0.843464 -7.187573 -6.627165 8.639660 5.525520 11.199758 1.487357 13.330156 -12.647537 -9.637378 -9.258803 8.750585 2.096414 1.261290 1.515807 9.529093 0.099970 -3.259709 0.520676 0.967678 -0.569806 2.391434 1.035705 1.988104 2.302351 2.160790 -0.422107 -4.189656 -6.608243 1.429135 -7.987071 0.305642 2.161471 -14.330818 2.375045 -5.565173 -9.740520 1.337772 -8.073090 21.124429 -6.817580 -1.710679 -12.863078 6.025745 -1.372769 -6.300098 1.498433 -5.903617 -10.359684 -3.887395 7.365433 -9.286412 1.090791 3.346714 15.878847 6.994085 4.185212 -3.203684 
-0.000604 -0.000193 0.000771 174.622459 24.950724 -19.300700 8.576222 5.378609 8.928808 -5.230456 -18.044417 -2.042842 -6.408708 11.751122 -7.447896 3.242611 0.848475 0.831888 -7.195444 -6.623517 8.592648 5.529295 11.189797 1.469308 13.334015 -12.636954 -9.635590 -9.270253 8.750009 2.110269 1.266365 1.480501 9.506955 0.100097 -3.286370 0.468007 0.962748 -0.599355 2.382780 1.035611 1.992191 2.308103 2.153762 -0.397797 -4.138159 -6.626536 1.440528 -7.996052 0.266371 2.116906 -14.341735 2.393731 -5.571995 -9.768992 1.340683 -8.087578 21.079016 -6.819256 -1.707906 -12.836473 6.025100 -1.415586 -6.306374 1.481294 -5.895082 -10.365087 -3.901616 7.349920 -9.313201 1.086583 3.352354 15.854100 6.987844 4.181919 -3.183424 
-0.001089 -0.000352 0.001883 174.630091 24.899966 -19.195274 8.560895 5.370416 8.897474 -5.236668 -18.011820 -1.985666 -6.330991 11.814887 -7.566062 3.178115 0.833751 0.874338 -7.188494 -6.599826 8.588604 5.536576 11.252224 1.425634 13.345124 -12.648271 -9.706587 -9.283702 8.777042 2.162193 1.245566 1.472302 9.348106 0.115996 -3.312026 0.380477 0.949316 -0.616759 2.367743 1.069094 1.939919 2.326909 2.154409 -0.427353 -4.118977 -6.599386 1.449933 -7.998717 0.424442 2.138931 -14.346509 2.378437 -5.541001 -9.672262 1.313938 -8.085261 21.253449 -6.847227 -1.702859 -12.884246 6.000747 -1.465057 -6.334078 1.319136 -5.941645 -10.351028 -3.832320 7.330484 -9.215860 1.097358 3.353274 15.867596 6.996663 4.178905 -3.178698 
-0.001592 -0.000484 0.003009 174.641678 24.779529 -19.202294 8.592602 5.385192 9.025098 -5.236646 -18.019884 -1.959727 -6.312259 11.884111 -7.701777 3.171777 0.808289 0.948606 -7.178581 -6.580221 8.678105 5.537246 11.335975 1.424695 13.360332 -12.625611 -9.778675 -9.277421 8.800882 2.188409 1.215232 1.491154 9.265632 0.135873 -3.304673 0.381072 0.948648 -0.601328 2.340183 1.090864 2.000618 2.303844 2.116669 -0.448044 -4.086317 -6.583990 1.408984 -8.003513 0.600984 2.209256 -14.318454 2.339780 -5.587922 -9.576778 1.232210 -8.070509 21.407539 -6.892497 -1.706487 -12.956369 6.048979 -1.422703 -6.327472 1.207160 -5.967911 -10.334531 -3.799135 7.340454 -9.155985 1.160124 3.333593 15.860377 7.032134 4.179433 -3.214587 
-0.002154 -0.000650 0.004134 174.623027 24.747437 -19.240006 8.630449 5.394081 9.154708 -5.247263 -18.049076 -1.939918 -6.293113 11.898339 -7.817515 3.169245 0.820738 1.002476 -7.163345 -6.558783 8.781180 5.531326 11.351706 1.467490 13.343550 -12.603149 -9.845024 -9.234180 8.780257 2.182545 1.167848 1.510454 9.193182 0.162302 -3.302422 0.432946 0.966121 -0.599058 2.328218 1.162014 2.038976 2.283553 2.133386 -0.449566 -4.126456 -6.611138 1.378402 -7.985385 0.579748 2.200289 -14.278767 2.367790 -5.677001 -9.508214 1.278381 -8.044111 21.432085 -6.898721 -1.711560 -12.977361 6.109687 -1.390497 -6.313742 1.321407 -5.934219 -10.269772 -3.775340 7.343948 -9.055377 1.166719 3.305865 15.830399 7.036581 4.184665 -3.233166 
-0.002972 -0.000728 0.005024 174.594020 24.877471 -19.339341 8.608375 5.363624 9.291795 -5.250463 -18.155485 -1.893722 -6.266000 11.865716 -7.937495 3.136726 0.853031 1.037324 -7.206239 -6.566233 9.007814 5.504629 11.332083 1.437379 13.317405 -12.643002 -9.927531 -9.173877 8.753685 2.183727 1.151518 1.522758 9.217261 0.162460 -3.332543 0.534505 0.972584 -0.622297 2.332205 1.178095 2.001141 2.232553 2.140334 -0.445612 -4.227450 -6.734775 1.334594 -7.929193 0.434251 2.187165 -14.219767 2.379845 -5.707616 -9.440851 1.460780 -8.082676 21.391577 -6.899192 -1.724881 -12.956629 6.201034 -1.364887 -6.291717 1.393385 -6.006654 -10.221828 -3.819745 7.394000 -9.065098 1.020450 3.342442 15.889893 7.044869 4.206909 -3.248710 
-0.004036 -0.000745 0.005533 174.593239 24.940853 -19.389580 8.557201 5.348296 9.338740 -5.320390 -18.163737 -1.758600 -6.134824 11.796974 -8.043435 3.024411 1.014321 0.998304 -7.290228 -6.606003 9.117530 5.492611 11.304701 1.477461 13.298227 -12.604536 -9.973218 -9.130142 8.742648 2.158242 1.160375 1.537374 9.233695 0.097789 -3.260503 0.606359 0.942247 -0.606946 2.343273 1.282065 1.826076 2.295935 2.188919 -0.463010 -4.158898 -6.965420 1.462619 -7.920433 0.171641 2.119370 -14.216135 2.859162 -6.306964 -9.551564 1.583300 -7.985844 21.218528 -6.905215 -1.730121 -12.836759 6.280242 -1.384751 -6.257683 1.461163 -6.039869 -10.213994 -3.968955 7.621758 -9.140883 0.985708 3.292189 15.948451 7.053291 4.226949 -3.214498 
-0.005399 -0.000687 0.005680 174.593407 24.846600 -19.518769 8.473095 5.242551 9.450747 -5.374971 -18.001610 -1.545934 -5.887393 11.684124 -8.193007 2.872242 1.470838 0.830272 -7.348592 -6.525622 9.231142 5.455033 11.202316 1.596027 13.128855 -12.402227 -9.960293 -8.844249 8.526281 2.170607 1.196553 1.508853 9.339909 -0.025374 -2.993439 0.857065 0.900987 -0.557810 2.333703 1.513868 1.473892 2.198655 2.178071 -0.452877 -4.115800 -7.793622 2.048829 -7.796842 -0.727108 2.027593 -13.900883 4.895563 -9.493421 -9.812467 1.843022 -8.072096 20.299942 -6.925023 -1.729845 -12.472020 6.727458 -1.500984 -6.086906 1.770590 -6.052172 -10.007755 -4.832338 9.259350 -9.553580 0.789385 3.349307 15.608116 7.134414 4.234798 -3.110422 
-0.006958 -0.000428 0.004914 174.656246 24.727396 -19.555772 8.325222 5.004549 9.521184 -5.446027 -17.452671 -1.552266 -5.530826 11.187871 -8.138908 2.845589 2.555801 0.412422 -7.458064 -6.313373 9.139684 5.442117 10.773494 1.796694 12.703156 -12.018195 -9.843555 -8.372182 8.234767 2.104916 1.116534 1.442465 9.345741 -0.169392 -2.696594 1.247477 0.777150 -0.653449 2.268588 1.867766 1.104642 2.124330 2.151838 -0.475532 -3.786629 -9.324379 3.117628 -7.528272 -2.707502 1.348097 -13.928336 8.590189 -14.949984 -13.567119 2.186382 -7.696959 15.213718 -7.044766 -1.778136 -10.987676 7.821226 -2.218991 -5.966448 3.796297 -5.510957 -8.815875 -8.210938 15.997468 -12.096674 0.442551 3.561040 12.124853 7.537683 4.417161 -2.656944 
-0.008626 -0.000021 0.003746 174.619365 24.690236 -19.642670 8.218829 4.867026 9.559513 -5.436503 -16.855984 -1.598410 -5.232817 10.260532 -8.002411 2.997742 3.978708 -0.326575 -7.515632 -5.998405 9.137300 5.357717 9.989357 1.855845 12.309630 -11.352869 -9.596533 -7.914736 7.448294 1.870362 0.925819 1.427227 9.397969 -0.281713 -2.545255 1.647005 0.644312 -0.866276 2.083777 2.375897 1.001322 2.124853 2.006594 -0.566616 -3.360361 -10.993260 3.852712 -6.943734 -5.956358 0.335884 -12.974143 11.911153 -20.908745 -14.301677 1.836955 -7.719405 12.859389 -7.428849 -1.887723 -10.615481 8.935637 -2.944053 -5.772711 7.555455 -4.783894 -6.740436 -12.456393 25.116243 -13.579577 0.465396 4.107449 8.608829 8.140902 4.694741 -2.506063 
-0.010211 0.000416 0.001778 174.583293 24.464367 -19.594896 8.147530 4.914118 9.370913 -5.422897 -16.215619 -1.570507 -4.881349 9.108530 -7.739553 3.178734 5.759376 -1.361148 -7.518007 -5.750574 8.992502 5.172408 9.091776 1.700065 12.019435 -10.397062 -9.087942 -7.516771 6.373137 1.371335 0.591309 1.524518 9.538146 -0.429943 -2.457446 1.941773 0.457249 -1.101293 1.838631 3.191799 0.840974 2.174317 2.101298 -0.982105 -3.192075 -12.875633 4.403736 -6.099779 -10.020850 -0.619768 -11.065487 14.527076 -27.462739 -12.275645 3.175962 -8.210507 13.574930 -8.414582 -2.315941 -11.523333 10.252853 -3.620615 -5.415759 12.987357 -4.296319 -3.442392 -17.020861 36.806938 -13.809845 -1.466243 5.285488 5.601083 9.467868 5.318441 -3.025425 
-0.011745 0.000984 -0.000396 174.454886 24.377910 -19.675047 8.120199 4.900656 9.284068 -5.386569 -15.545692 -1.653178 -4.379517 7.828363 -7.404573 3.182200 7.661318 -2.512784 -7.491979 -5.521176 8.922384 4.984824 7.913259 1.638299 11.555410 -9.184397 -8.499719 -6.883258 4.978417 0.703615 0.188088 1.669028 9.731803 -0.629021 -2.383306 2.384312 0.265910 -1.334442 1.636827 4.008650 0.368775 2.492628 2.619822 -1.567248 -3.138801 -14.913174 4.858792 -5.070990 -15.322675 -2.054087 -8.903588 17.140269 -34.138237 -10.814867 5.190059 -8.540262 13.246866 -9.181616 -2.720461 -11.828882 11.728355 -4.313242 -4.750317 20.280858 -4.251132 0.681287 -22.031231 49.037816 -14.044766 -3.662763 6.398846 2.869576 10.595015 6.069363 -3.428857 
